<svg width="1457" height="882" viewBox="0 0 1457 882" fill="none" xmlns="http://www.w3.org/2000/svg">
<g clip-path="url(#clip0_428_2)">
<path d="M479.92 392L1368.89 188L1368.89 564.5L479.92 844L479.92 392Z" fill="#476339"/>
<path d="M79.5 189L479.92 392V844L79.5 542.5V189Z" fill="#668956"/>
<path d="M79.5 189L869.995 41.9979L1368.89 187.998L479.154 392.497L79.5 189Z" fill="#ABC98B"/>
<path d="M607.457 440.92C607.457 452.269 607.457 463.605 607.447 474.994C598.957 476.912 590.487 478.817 582.017 480.735C582.007 515.288 582.007 549.841 582.017 584.393C572.575 586.605 563.124 588.789 553.723 591C553.723 556.367 553.713 521.748 553.713 487.129C545.202 489.033 536.712 490.951 528.201 492.896C528.201 481.454 528.201 470.012 528.201 458.583C554.623 452.722 581.025 446.821 607.457 440.92ZM679.726 561.403C677.926 556.514 676.146 551.612 674.376 546.71C661.14 549.814 647.893 552.931 634.687 556.021C632.877 561.776 631.076 567.543 629.276 573.311C618.995 575.709 608.695 578.12 598.414 580.544C614.873 530.326 631.322 480.202 647.801 430.131C652.261 429.119 656.711 428.12 661.181 427.107C677.67 469.479 694.139 511.811 710.639 554.103C700.328 556.541 690.017 558.978 679.726 561.403ZM643.597 527.303C650.859 525.598 658.122 523.906 665.405 522.228C661.784 512.224 658.153 502.247 654.532 492.257C650.88 503.925 647.238 515.607 643.597 527.303ZM811.049 530.126C800.042 532.777 789.025 535.415 778.019 538.039C768.546 520.616 759.074 503.153 749.612 485.717C749.612 505.404 749.602 525.131 749.592 544.832C740.181 547.07 730.79 549.308 721.39 551.546C721.328 506.07 721.298 460.634 721.247 415.199C734.688 412.122 748.149 409.085 761.601 405.995C784.555 400.76 800.973 416.757 800.963 441.04C800.973 457.93 792.994 473.915 782.56 482.44C792.063 498.318 801.556 514.222 811.049 530.126ZM749.469 441.267C749.469 450.338 749.479 459.436 749.479 468.52C753.315 467.641 757.161 466.788 761.007 465.909C767.002 464.604 772.485 457.93 772.485 449.592C772.485 441.173 766.951 437.231 761.018 438.589C757.171 439.468 753.325 440.361 749.469 441.267ZM854.359 521.535C836.888 525.757 821.012 519.723 815.652 506.043C821.339 497.572 827.037 489.113 832.745 480.655C837.154 487.914 845.378 490.978 854.298 488.834C860.292 487.395 866.174 483.239 866.174 477.711C866.164 470.771 855.28 467.255 844.877 463.858C831.425 459.689 819.876 451.15 819.876 430.784C819.876 407.353 837.358 386.653 857.53 382.018C873.743 378.302 886.417 385.068 890.57 397.336C885.118 405.222 879.707 413.094 874.285 420.993C871.114 414.653 862.941 413.467 857.847 414.639C852.068 415.985 847.915 420.727 847.904 425.336C847.915 431.516 855.423 431.769 866.89 435.166C883.512 440.108 894.509 450.364 894.519 470.225C894.519 495.827 875.656 516.353 854.359 521.535Z" fill="#ABC98B"/>
</g>
<defs>
<clipPath id="clip0_428_2">
<rect width="1457" height="882" fill="white"/>
</clipPath>
</defs>
</svg>
